<?xml version="1.0" encoding="UTF-8"?>
<svg width="10px" height="10px" viewBox="0 0 10 10" version="1.1" xmlns="http://www.w3.org/2000/svg" xmlns:xlink="http://www.w3.org/1999/xlink">
    <!-- Generator: Sketch 50 (54983) - http://www.bohemiancoding.com/sketch -->
    <title>Shape@2x</title>
    <desc>Created with Sketch.</desc>
    <defs></defs>
    <g id="Page-1" stroke="none" stroke-width="1" fill="none" fill-rule="evenodd">
        <g id="Reteta" transform="translate(-253.000000, -628.000000)" fill="#9B9B9B" fill-rule="nonzero">
            <g id="Data" transform="translate(172.000000, 624.000000)">
                <g id="small-calendar" transform="translate(66.000000, 1.000000)">
                    <path d="M24.166875,3.9375 L22.8125,3.9375 L22.8125,3.3125 C22.8125,3.1396875 22.6728125,3 22.5,3 C22.3271875,3 22.1875,3.1396875 22.1875,3.3125 L22.1875,3.9375 L20.3125,3.9375 L20.3125,3.3125 C20.3125,3.1396875 20.1725,3 20,3 C19.8275,3 19.6875,3.1396875 19.6875,3.3125 L19.6875,3.9375 L17.8125,3.9375 L17.8125,3.3125 C17.8125,3.1396875 17.6725,3 17.5,3 C17.3275,3 17.1875,3.1396875 17.1875,3.3125 L17.1875,3.9375 L15.8334375,3.9375 C15.373125,3.9375 15,4.3103125 15,4.770625 L15,12.1665625 C15,12.626875 15.373125,13 15.8334375,13 L24.166875,13 C24.6271875,13 25,12.626875 25,12.1665625 L25,4.770625 C25,4.3103125 24.6271875,3.9375 24.166875,3.9375 Z M24.375,12.1665625 C24.375,12.2815625 24.2815625,12.375 24.166875,12.375 L15.8334375,12.375 C15.7184375,12.375 15.625,12.2815625 15.625,12.1665625 L15.625,4.770625 C15.625,4.6559375 15.7184375,4.5625 15.8334375,4.5625 L17.1875,4.5625 L17.1875,5.1875 C17.1875,5.3603125 17.3275,5.5 17.5,5.5 C17.6725,5.5 17.8125,5.3603125 17.8125,5.1875 L17.8125,4.5625 L19.6875,4.5625 L19.6875,5.1875 C19.6875,5.3603125 19.8275,5.5 20,5.5 C20.1725,5.5 20.3125,5.3603125 20.3125,5.1875 L20.3125,4.5625 L22.1875,4.5625 L22.1875,5.1875 C22.1875,5.3603125 22.3271875,5.5 22.5,5.5 C22.6728125,5.5 22.8125,5.3603125 22.8125,5.1875 L22.8125,4.5625 L24.166875,4.5625 C24.2815625,4.5625 24.375,4.6559375 24.375,4.770625 L24.375,12.1665625 Z" id="Shape"></path>
                </g>
            </g>
        </g>
    </g>
</svg>